<?xml version="1.0" encoding="UTF-8"?>
<svg id="Layer_1" data-name="Layer 1" xmlns="http://www.w3.org/2000/svg" viewBox="0 0 1347.81 179.24">
  <defs>
    <style>
      .cls-1 {
        fill: #6889c6;
      }
    </style>
  </defs>
  <g>
    <circle class="cls-1" cx="1342" cy="146.97" r="2"/>
    <circle class="cls-1" cx="1323.58" cy="152.38" r="2"/>
    <circle class="cls-1" cx="1304.91" cy="156.69" r="2"/>
    <circle class="cls-1" cx="1285.97" cy="159.89" r="2"/>
    <circle class="cls-1" cx="1267.04" cy="163.09" r="2"/>
    <circle class="cls-1" cx="1248.01" cy="165.4" r="2"/>
    <circle class="cls-1" cx="1228.85" cy="166.69" r="2"/>
    <circle class="cls-1" cx="1209.69" cy="167.98" r="2"/>
    <circle class="cls-1" cx="1190.51" cy="168.38" r="2"/>
    <circle class="cls-1" cx="1171.31" cy="168.21" r="2"/>
    <circle class="cls-1" cx="1152.11" cy="168.04" r="2"/>
    <circle class="cls-1" cx="1132.94" cy="167.04" r="2"/>
    <circle class="cls-1" cx="1113.77" cy="165.94" r="2"/>
    <circle class="cls-1" cx="1094.64" cy="164.41" r="2"/>
    <circle class="cls-1" cx="1075.6" cy="162" r="2"/>
    <circle class="cls-1" cx="1056.62" cy="159.11" r="2"/>
    <circle class="cls-1" cx="1037.77" cy="155.47" r="2"/>
    <circle class="cls-1" cx="1018.92" cy="151.83" r="2"/>
    <circle class="cls-1" cx="1000.18" cy="147.64" r="2"/>
    <circle class="cls-1" cx="981.46" cy="143.39" r="2"/>
    <circle class="cls-1" cx="962.73" cy="139.15" r="2"/>
    <circle class="cls-1" cx="944.08" cy="134.62" r="2"/>
    <circle class="cls-1" cx="925.42" cy="130.08" r="2"/>
    <circle class="cls-1" cx="906.76" cy="125.54" r="2"/>
    <circle class="cls-1" cx="888.12" cy="120.94" r="2"/>
    <circle class="cls-1" cx="869.49" cy="116.3" r="2"/>
    <circle class="cls-1" cx="850.86" cy="111.67" r="2"/>
    <circle class="cls-1" cx="832.23" cy="107.04" r="2"/>
    <circle class="cls-1" cx="813.58" cy="102.45" r="2"/>
    <circle class="cls-1" cx="794.94" cy="97.87" r="2"/>
    <circle class="cls-1" cx="776.29" cy="93.28" r="2"/>
    <circle class="cls-1" cx="757.64" cy="88.75" r="2"/>
    <circle class="cls-1" cx="738.94" cy="84.36" r="2"/>
    <circle class="cls-1" cx="720.25" cy="79.98" r="2"/>
    <circle class="cls-1" cx="701.56" cy="75.59" r="2"/>
    <circle class="cls-1" cx="682.87" cy="71.21" r="2"/>
    <circle class="cls-1" cx="664.12" cy="67.05" r="2"/>
    <circle class="cls-1" cx="645.34" cy="63.05" r="2"/>
    <circle class="cls-1" cx="626.56" cy="59.06" r="2"/>
    <circle class="cls-1" cx="607.78" cy="55.07" r="2"/>
    <circle class="cls-1" cx="589" cy="51.07" r="2"/>
    <circle class="cls-1" cx="570.12" cy="47.61" r="2"/>
    <circle class="cls-1" cx="551.22" cy="44.23" r="2"/>
    <circle class="cls-1" cx="532.32" cy="40.85" r="2"/>
    <circle class="cls-1" cx="513.42" cy="37.47" r="2"/>
    <circle class="cls-1" cx="494.48" cy="34.33" r="2"/>
    <circle class="cls-1" cx="475.44" cy="31.87" r="2"/>
    <circle class="cls-1" cx="456.4" cy="29.41" r="2"/>
    <circle class="cls-1" cx="437.36" cy="26.95" r="2"/>
    <circle class="cls-1" cx="418.31" cy="24.49" r="2"/>
    <circle class="cls-1" cx="399.15" cy="23.31" r="2"/>
    <circle class="cls-1" cx="379.98" cy="22.23" r="2"/>
    <circle class="cls-1" cx="360.82" cy="21.16" r="2"/>
    <circle class="cls-1" cx="341.65" cy="20.08" r="2"/>
    <circle class="cls-1" cx="322.45" cy="20.52" r="2"/>
    <circle class="cls-1" cx="303.26" cy="20.99" r="2"/>
    <circle class="cls-1" cx="284.06" cy="21.47" r="2"/>
    <circle class="cls-1" cx="264.87" cy="21.95" r="2"/>
    <circle class="cls-1" cx="245.72" cy="23.12" r="2"/>
    <circle class="cls-1" cx="226.59" cy="24.82" r="2"/>
    <circle class="cls-1" cx="207.47" cy="26.53" r="2"/>
    <circle class="cls-1" cx="188.34" cy="28.23" r="2"/>
    <circle class="cls-1" cx="169.31" cy="30.69" r="2"/>
    <circle class="cls-1" cx="150.32" cy="33.56" r="2"/>
    <circle class="cls-1" cx="131.34" cy="36.42" r="2"/>
    <circle class="cls-1" cx="112.41" cy="39.57" r="2"/>
    <circle class="cls-1" cx="93.62" cy="43.52" r="2"/>
    <circle class="cls-1" cx="74.83" cy="47.48" r="2"/>
    <circle class="cls-1" cx="56.14" cy="51.83" r="2"/>
    <circle class="cls-1" cx="37.59" cy="56.8" r="2"/>
    <circle class="cls-1" cx="19.07" cy="61.86" r="2"/>
    <circle class="cls-1" cx=".8" cy="67.75" r="2"/>
  </g>
  <g>
    <circle class="cls-1" cx="1348.54" cy="157.38" r="1"/>
    <circle class="cls-1" cx="1337.04" cy="150.99" r="1"/>
    <circle class="cls-1" cx="1325.17" cy="145.31" r="1"/>
    <circle class="cls-1" cx="1313.31" cy="139.62" r="1"/>
    <circle class="cls-1" cx="1301.44" cy="133.94" r="1"/>
    <circle class="cls-1" cx="1289.57" cy="128.25" r="1"/>
    <circle class="cls-1" cx="1277.43" cy="123.2" r="1"/>
    <circle class="cls-1" cx="1265.14" cy="118.47" r="1"/>
    <circle class="cls-1" cx="1252.86" cy="113.74" r="1"/>
    <circle class="cls-1" cx="1240.58" cy="109.01" r="1"/>
    <circle class="cls-1" cx="1228.3" cy="104.28" r="1"/>
    <circle class="cls-1" cx="1215.85" cy="100.07" r="1"/>
    <circle class="cls-1" cx="1203.21" cy="96.39" r="1"/>
    <circle class="cls-1" cx="1190.58" cy="92.7" r="1"/>
    <circle class="cls-1" cx="1177.94" cy="89.02" r="1"/>
    <circle class="cls-1" cx="1165.31" cy="85.34" r="1"/>
    <circle class="cls-1" cx="1152.68" cy="81.65" r="1"/>
    <circle class="cls-1" cx="1139.85" cy="78.74" r="1"/>
    <circle class="cls-1" cx="1126.95" cy="76.18" r="1"/>
    <circle class="cls-1" cx="1114.04" cy="73.62" r="1"/>
    <circle class="cls-1" cx="1101.13" cy="71.06" r="1"/>
    <circle class="cls-1" cx="1088.22" cy="68.5" r="1"/>
    <circle class="cls-1" cx="1075.31" cy="65.94" r="1"/>
    <circle class="cls-1" cx="1062.36" cy="63.65" r="1"/>
    <circle class="cls-1" cx="1049.28" cy="62.26" r="1"/>
    <circle class="cls-1" cx="1036.19" cy="60.88" r="1"/>
    <circle class="cls-1" cx="1023.1" cy="59.5" r="1"/>
    <circle class="cls-1" cx="1010.01" cy="58.12" r="1"/>
    <circle class="cls-1" cx="996.93" cy="56.74" r="1"/>
    <circle class="cls-1" cx="983.84" cy="55.36" r="1"/>
    <circle class="cls-1" cx="970.75" cy="54.07" r="1"/>
    <circle class="cls-1" cx="957.59" cy="53.67" r="1"/>
    <circle class="cls-1" cx="944.44" cy="53.28" r="1"/>
    <circle class="cls-1" cx="931.28" cy="52.88" r="1"/>
    <circle class="cls-1" cx="918.13" cy="52.49" r="1"/>
    <circle class="cls-1" cx="904.98" cy="52.09" r="1"/>
    <circle class="cls-1" cx="891.82" cy="51.7" r="1"/>
    <circle class="cls-1" cx="878.67" cy="51.39" r="1"/>
    <circle class="cls-1" cx="865.51" cy="51.83" r="1"/>
    <circle class="cls-1" cx="852.36" cy="52.28" r="1"/>
    <circle class="cls-1" cx="839.21" cy="52.72" r="1"/>
    <circle class="cls-1" cx="826.06" cy="53.16" r="1"/>
    <circle class="cls-1" cx="812.9" cy="53.61" r="1"/>
    <circle class="cls-1" cx="799.75" cy="54.05" r="1"/>
    <circle class="cls-1" cx="786.65" cy="55.32" r="1"/>
    <circle class="cls-1" cx="773.56" cy="56.6" r="1"/>
    <circle class="cls-1" cx="760.46" cy="57.88" r="1"/>
    <circle class="cls-1" cx="747.36" cy="59.16" r="1"/>
    <circle class="cls-1" cx="734.26" cy="60.44" r="1"/>
    <circle class="cls-1" cx="721.22" cy="62.12" r="1"/>
    <circle class="cls-1" cx="708.21" cy="64.14" r="1"/>
    <circle class="cls-1" cx="695.21" cy="66.16" r="1"/>
    <circle class="cls-1" cx="682.2" cy="68.18" r="1"/>
    <circle class="cls-1" cx="669.2" cy="70.2" r="1"/>
    <circle class="cls-1" cx="656.26" cy="72.56" r="1"/>
    <circle class="cls-1" cx="643.35" cy="75.11" r="1"/>
    <circle class="cls-1" cx="630.44" cy="77.67" r="1"/>
    <circle class="cls-1" cx="617.53" cy="80.23" r="1"/>
    <circle class="cls-1" cx="604.62" cy="82.8" r="1"/>
    <circle class="cls-1" cx="591.76" cy="85.6" r="1"/>
    <circle class="cls-1" cx="578.9" cy="88.39" r="1"/>
    <circle class="cls-1" cx="566.04" cy="91.19" r="1"/>
    <circle class="cls-1" cx="553.18" cy="93.98" r="1"/>
    <circle class="cls-1" cx="540.31" cy="96.69" r="1"/>
    <circle class="cls-1" cx="527.42" cy="99.36" r="1"/>
    <circle class="cls-1" cx="514.53" cy="102.02" r="1"/>
    <circle class="cls-1" cx="501.64" cy="104.69" r="1"/>
    <circle class="cls-1" cx="488.72" cy="107.17" r="1"/>
    <circle class="cls-1" cx="475.74" cy="109.34" r="1"/>
    <circle class="cls-1" cx="462.76" cy="111.5" r="1"/>
    <circle class="cls-1" cx="449.78" cy="113.67" r="1"/>
    <circle class="cls-1" cx="436.8" cy="115.84" r="1"/>
    <circle class="cls-1" cx="423.71" cy="117.21" r="1"/>
    <circle class="cls-1" cx="410.62" cy="118.57" r="1"/>
    <circle class="cls-1" cx="397.53" cy="119.93" r="1"/>
    <circle class="cls-1" cx="384.44" cy="121.29" r="1"/>
    <circle class="cls-1" cx="371.33" cy="122.29" r="1"/>
    <circle class="cls-1" cx="358.18" cy="122.66" r="1"/>
    <circle class="cls-1" cx="345.02" cy="123.02" r="1"/>
    <circle class="cls-1" cx="331.87" cy="123.39" r="1"/>
    <circle class="cls-1" cx="318.71" cy="123.75" r="1"/>
    <circle class="cls-1" cx="305.56" cy="123.73" r="1"/>
    <circle class="cls-1" cx="292.43" cy="122.9" r="1"/>
    <circle class="cls-1" cx="279.3" cy="122.07" r="1"/>
    <circle class="cls-1" cx="266.16" cy="121.24" r="1"/>
    <circle class="cls-1" cx="253.03" cy="120.4" r="1"/>
    <circle class="cls-1" cx="239.9" cy="119.57" r="1"/>
    <circle class="cls-1" cx="226.86" cy="117.86" r="1"/>
    <circle class="cls-1" cx="213.88" cy="115.72" r="1"/>
    <circle class="cls-1" cx="200.89" cy="113.58" r="1"/>
    <circle class="cls-1" cx="187.91" cy="111.43" r="1"/>
    <circle class="cls-1" cx="174.92" cy="109.29" r="1"/>
    <circle class="cls-1" cx="162.07" cy="106.55" r="1"/>
    <circle class="cls-1" cx="149.34" cy="103.21" r="1"/>
    <circle class="cls-1" cx="136.61" cy="99.87" r="1"/>
    <circle class="cls-1" cx="123.88" cy="96.54" r="1"/>
    <circle class="cls-1" cx="111.15" cy="93.2" r="1"/>
    <circle class="cls-1" cx="98.69" cy="88.99" r="1"/>
    <circle class="cls-1" cx="86.28" cy="84.59" r="1"/>
    <circle class="cls-1" cx="73.88" cy="80.19" r="1"/>
    <circle class="cls-1" cx="61.48" cy="75.79" r="1"/>
    <circle class="cls-1" cx="49.32" cy="70.77" r="1"/>
    <circle class="cls-1" cx="37.29" cy="65.44" r="1"/>
    <circle class="cls-1" cx="25.26" cy="60.11" r="1"/>
    <circle class="cls-1" cx="13.26" cy="54.72" r="1"/>
    <circle class="cls-1" cx="1.62" cy="48.58" r="1"/>
  </g>
  <g>
    <circle class="cls-1" cx="1346.19" cy="87.16" r="1"/>
    <circle class="cls-1" cx="1333.14" cy="85.41" r="1"/>
    <circle class="cls-1" cx="1320.1" cy="83.66" r="1"/>
    <circle class="cls-1" cx="1307.06" cy="81.9" r="1"/>
    <circle class="cls-1" cx="1294.14" cy="79.46" r="1"/>
    <circle class="cls-1" cx="1281.28" cy="76.65" r="1"/>
    <circle class="cls-1" cx="1268.42" cy="73.84" r="1"/>
    <circle class="cls-1" cx="1255.57" cy="71.03" r="1"/>
    <circle class="cls-1" cx="1242.71" cy="68.21" r="1"/>
    <circle class="cls-1" cx="1229.96" cy="64.97" r="1"/>
    <circle class="cls-1" cx="1217.23" cy="61.63" r="1"/>
    <circle class="cls-1" cx="1204.5" cy="58.29" r="1"/>
    <circle class="cls-1" cx="1191.77" cy="54.95" r="1"/>
    <circle class="cls-1" cx="1179.04" cy="51.61" r="1"/>
    <circle class="cls-1" cx="1166.31" cy="48.27" r="1"/>
    <circle class="cls-1" cx="1153.58" cy="44.94" r="1"/>
    <circle class="cls-1" cx="1140.85" cy="41.6" r="1"/>
    <circle class="cls-1" cx="1128.12" cy="38.27" r="1"/>
    <circle class="cls-1" cx="1115.37" cy="35.01" r="1"/>
    <circle class="cls-1" cx="1102.51" cy="32.21" r="1"/>
    <circle class="cls-1" cx="1089.66" cy="29.4" r="1"/>
    <circle class="cls-1" cx="1076.8" cy="26.6" r="1"/>
    <circle class="cls-1" cx="1063.94" cy="23.8" r="1"/>
    <circle class="cls-1" cx="1051.04" cy="21.24" r="1"/>
    <circle class="cls-1" cx="1038" cy="19.48" r="1"/>
    <circle class="cls-1" cx="1024.96" cy="17.72" r="1"/>
    <circle class="cls-1" cx="1011.91" cy="15.96" r="1"/>
    <circle class="cls-1" cx="998.87" cy="14.2" r="1"/>
    <circle class="cls-1" cx="985.8" cy="12.8" r="1"/>
    <circle class="cls-1" cx="972.65" cy="12.53" r="1"/>
    <circle class="cls-1" cx="959.49" cy="12.26" r="1"/>
    <circle class="cls-1" cx="946.33" cy="12" r="1"/>
    <circle class="cls-1" cx="933.17" cy="11.73" r="1"/>
    <circle class="cls-1" cx="920.02" cy="11.55" r="1"/>
    <circle class="cls-1" cx="906.95" cy="13.1" r="1"/>
    <circle class="cls-1" cx="893.88" cy="14.64" r="1"/>
    <circle class="cls-1" cx="880.81" cy="16.18" r="1"/>
    <circle class="cls-1" cx="867.74" cy="17.72" r="1"/>
    <circle class="cls-1" cx="854.67" cy="19.26" r="1"/>
    <circle class="cls-1" cx="841.72" cy="21.5" r="1"/>
    <circle class="cls-1" cx="828.88" cy="24.39" r="1"/>
    <circle class="cls-1" cx="816.05" cy="27.28" r="1"/>
    <circle class="cls-1" cx="803.21" cy="30.17" r="1"/>
    <circle class="cls-1" cx="790.37" cy="33.06" r="1"/>
    <circle class="cls-1" cx="777.53" cy="35.95" r="1"/>
    <circle class="cls-1" cx="764.69" cy="38.84" r="1"/>
    <circle class="cls-1" cx="751.9" cy="41.9" r="1"/>
    <circle class="cls-1" cx="739.21" cy="45.42" r="1"/>
    <circle class="cls-1" cx="726.53" cy="48.93" r="1"/>
    <circle class="cls-1" cx="713.85" cy="52.45" r="1"/>
    <circle class="cls-1" cx="701.17" cy="55.96" r="1"/>
    <circle class="cls-1" cx="688.49" cy="59.48" r="1"/>
    <circle class="cls-1" cx="675.8" cy="62.99" r="1"/>
    <circle class="cls-1" cx="663.15" cy="66.6" r="1"/>
    <circle class="cls-1" cx="650.55" cy="70.4" r="1"/>
    <circle class="cls-1" cx="637.95" cy="74.19" r="1"/>
    <circle class="cls-1" cx="625.35" cy="77.98" r="1"/>
    <circle class="cls-1" cx="612.75" cy="81.78" r="1"/>
    <circle class="cls-1" cx="600.14" cy="85.57" r="1"/>
    <circle class="cls-1" cx="587.54" cy="89.37" r="1"/>
    <circle class="cls-1" cx="574.92" cy="93.09" r="1"/>
    <circle class="cls-1" cx="562.29" cy="96.78" r="1"/>
    <circle class="cls-1" cx="549.66" cy="100.47" r="1"/>
    <circle class="cls-1" cx="537.02" cy="104.15" r="1"/>
    <circle class="cls-1" cx="524.39" cy="107.84" r="1"/>
    <circle class="cls-1" cx="511.76" cy="111.53" r="1"/>
    <circle class="cls-1" cx="499.1" cy="115.14" r="1"/>
    <circle class="cls-1" cx="486.33" cy="118.31" r="1"/>
    <circle class="cls-1" cx="473.56" cy="121.47" r="1"/>
    <circle class="cls-1" cx="460.78" cy="124.64" r="1"/>
    <circle class="cls-1" cx="448.01" cy="127.8" r="1"/>
    <circle class="cls-1" cx="435.24" cy="130.97" r="1"/>
    <circle class="cls-1" cx="422.46" cy="134.13" r="1"/>
    <circle class="cls-1" cx="409.54" cy="136.58" r="1"/>
    <circle class="cls-1" cx="396.56" cy="138.79" r="1"/>
    <circle class="cls-1" cx="383.59" cy="140.99" r="1"/>
    <circle class="cls-1" cx="370.62" cy="143.2" r="1"/>
    <circle class="cls-1" cx="357.64" cy="145.41" r="1"/>
    <circle class="cls-1" cx="344.67" cy="147.62" r="1"/>
    <circle class="cls-1" cx="331.64" cy="149.31" r="1"/>
    <circle class="cls-1" cx="318.5" cy="150.15" r="1"/>
    <circle class="cls-1" cx="305.37" cy="151" r="1"/>
    <circle class="cls-1" cx="292.24" cy="151.84" r="1"/>
    <circle class="cls-1" cx="279.11" cy="152.69" r="1"/>
    <circle class="cls-1" cx="265.97" cy="153.53" r="1"/>
    <circle class="cls-1" cx="252.84" cy="154.38" r="1"/>
    <circle class="cls-1" cx="239.69" cy="154.09" r="1"/>
    <circle class="cls-1" cx="226.54" cy="153.66" r="1"/>
    <circle class="cls-1" cx="213.38" cy="153.24" r="1"/>
    <circle class="cls-1" cx="200.23" cy="152.82" r="1"/>
    <circle class="cls-1" cx="187.08" cy="152.4" r="1"/>
    <circle class="cls-1" cx="173.95" cy="151.61" r="1"/>
    <circle class="cls-1" cx="160.86" cy="150.27" r="1"/>
    <circle class="cls-1" cx="147.76" cy="148.92" r="1"/>
    <circle class="cls-1" cx="134.67" cy="147.58" r="1"/>
    <circle class="cls-1" cx="121.58" cy="146.23" r="1"/>
    <circle class="cls-1" cx="108.54" cy="144.53" r="1"/>
    <circle class="cls-1" cx="95.56" cy="142.34" r="1"/>
    <circle class="cls-1" cx="82.59" cy="140.15" r="1"/>
    <circle class="cls-1" cx="69.61" cy="137.96" r="1"/>
    <circle class="cls-1" cx="56.64" cy="135.75" r="1"/>
    <circle class="cls-1" cx="43.81" cy="132.79" r="1"/>
    <circle class="cls-1" cx="30.99" cy="129.84" r="1"/>
    <circle class="cls-1" cx="18.17" cy="126.88" r="1"/>
    <circle class="cls-1" cx="5.39" cy="123.74" r="1"/>
  </g>
</svg>