<svg  viewBox="0 0 912 230" fill="none" xmlns="http://www.w3.org/2000/svg">
<path fill-rule="evenodd" clip-rule="evenodd" d="M292.632 114.928L177.948 229.612L145.576 197.24L227.887 114.928L145.576 32.6172L177.948 0.24507L292.632 114.928Z" fill="#66AF6E"/>
<path fill-rule="evenodd" clip-rule="evenodd" d="M352.389 114.928L237.706 229.612L205.334 197.24L287.645 114.928L205.334 32.6172L237.706 0.24507L352.389 114.928Z" fill="#5EA471"/>
<path fill-rule="evenodd" clip-rule="evenodd" d="M414.655 114.928L299.971 229.612L267.599 197.24L349.91 114.928L267.599 32.6172L299.971 0.24507L414.655 114.928Z" fill="#569B73"/>
<path fill-rule="evenodd" clip-rule="evenodd" d="M474.912 114.928L360.229 229.612L327.857 197.24L410.168 114.928L327.857 32.6172L360.229 0.24507L474.912 114.928Z" fill="#4E9174"/>
<path fill-rule="evenodd" clip-rule="evenodd" d="M538.813 114.928L424.129 229.612L391.757 197.24L474.069 114.928L391.757 32.6172L424.129 0.24507L538.813 114.928Z" fill="#3F8076"/>
<path fill-rule="evenodd" clip-rule="evenodd" d="M601.578 114.928L486.895 229.612L454.523 197.24L536.834 114.928L454.523 32.6172L486.895 0.24507L601.578 114.928Z" fill="#387776"/>
<path fill-rule="evenodd" clip-rule="evenodd" d="M665.82 114.928L551.136 229.612L518.764 197.24L601.075 114.928L518.764 32.6172L551.136 0.24507L665.82 114.928Z" fill="#286875"/>
<path fill-rule="evenodd" clip-rule="evenodd" d="M727.106 114.928L612.423 229.612L580.051 197.24L662.362 114.928L580.051 32.6172L612.423 0.24507L727.106 114.928Z" fill="#206175"/>
<path fill-rule="evenodd" clip-rule="evenodd" d="M791.348 114.928L676.665 229.612L644.293 197.24L726.604 114.928L644.293 32.6172L676.665 0.24507L791.348 114.928Z" fill="#175975"/>
<path fill-rule="evenodd" clip-rule="evenodd" d="M848.602 114.928L733.919 229.612L701.547 197.24L783.858 114.928L701.547 32.6172L733.919 0.24507L848.602 114.928Z" fill="#0B5274"/>
<path fill-rule="evenodd" clip-rule="evenodd" d="M912.001 114.928L797.317 229.612L764.945 197.24L847.257 114.928L764.945 32.6172L797.317 0.24507L912.001 114.928Z" fill="#044B73"/>
<path fill-rule="evenodd" clip-rule="evenodd" d="M229.366 114.928L114.683 229.612L82.3111 197.24L164.622 114.928L82.3111 32.6172L114.683 0.24507L229.366 114.928Z" fill="#70BA6B"/>
</svg>
