<svg  viewBox="0 0 223 122" fill="none" xmlns="http://www.w3.org/2000/svg">
<path fill-rule="evenodd" clip-rule="evenodd" d="M121.622 60.8113L60.8111 121.622L43.6457 104.457L87.2915 60.8113L43.6457 17.1655L60.8111 9.71556e-05L121.622 60.8113Z" fill="#70BA6B"/>
<path fill-rule="evenodd" clip-rule="evenodd" d="M155.245 60.8113L94.4334 121.622L77.268 104.457L120.914 60.8113L77.268 17.1655L94.4334 9.71556e-05L155.245 60.8113Z" fill="#4E9174"/>
<path fill-rule="evenodd" clip-rule="evenodd" d="M188.867 60.8113L128.056 121.622L110.891 104.457L154.536 60.8113L110.891 17.1655L128.056 9.71556e-05L188.867 60.8113Z" fill="#387776"/>
<path fill-rule="evenodd" clip-rule="evenodd" d="M222.49 60.8113L161.678 121.622L144.513 104.457L188.159 60.8113L144.513 17.1655L161.678 9.71556e-05L222.49 60.8113Z" fill="#0B5274"/>
</svg>
