<svg  viewBox="0 0 367 154" fill="none" xmlns="http://www.w3.org/2000/svg">
<path fill-rule="evenodd" clip-rule="evenodd" d="M152.735 76.9413L76.3678 153.309L54.8113 131.752L109.622 76.9413L54.8113 22.1303L76.3678 0.573753L152.735 76.9413Z" fill="#70BA6B"/>
<path fill-rule="evenodd" clip-rule="evenodd" d="M195.47 76.9413L119.102 153.309L97.5456 131.752L152.357 76.9413L97.5456 22.1303L119.102 0.573753L195.47 76.9413Z" fill="#5EA471"/>
<path fill-rule="evenodd" clip-rule="evenodd" d="M238.205 76.9413L161.838 153.309L140.281 131.752L195.092 76.9413L140.281 22.1303L161.838 0.573753L238.205 76.9413Z" fill="#4E9174"/>
<path fill-rule="evenodd" clip-rule="evenodd" d="M280.94 76.9413L204.573 153.309L183.016 131.752L237.827 76.9413L183.016 22.1303L204.573 0.573753L280.94 76.9413Z" fill="#387776"/>
<path fill-rule="evenodd" clip-rule="evenodd" d="M323.676 76.9413L247.308 153.309L225.752 131.752L280.563 76.9413L225.752 22.1303L247.308 0.573753L323.676 76.9413Z" fill="#206175"/>
<path fill-rule="evenodd" clip-rule="evenodd" d="M366.41 76.9413L290.043 153.309L268.486 131.752L323.297 76.9413L268.486 22.1303L290.043 0.573753L366.41 76.9413Z" fill="#0B5274"/>
</svg>
